<svg width="21" height="20" viewBox="0 0 21 20" fill="none" xmlns="http://www.w3.org/2000/svg">
<g id="card-cart">
<path id="Vector" d="M18.8101 4.54546H16.1434C15.7754 4.54546 15.4767 4.84648 15.4767 5.21739C15.4767 5.5883 15.7754 5.88933 16.1434 5.88933H18.8101C19.1774 5.88933 19.4767 6.19103 19.4767 6.56127V7.90514C19.4767 8.27538 19.1774 8.57708 18.8101 8.57708H2.81006C2.44273 8.57708 2.14339 8.27538 2.14339 7.90514V6.56127C2.14339 6.19103 2.44273 5.88933 2.81006 5.88933H5.47673C5.84473 5.88933 6.14339 5.5883 6.14339 5.21739C6.14339 4.84648 5.84473 4.54546 5.47673 4.54546H2.81006C1.70739 4.54546 0.810059 5.44988 0.810059 6.56127V7.90514C0.810059 8.80553 1.40273 9.56079 2.21273 9.81882L3.30606 18.0843C3.44806 19.1587 4.40139 20 5.47673 20H16.1434C17.2187 20 18.1721 19.1587 18.3134 18.085L19.4067 9.81882C20.2174 9.56079 20.8101 8.80553 20.8101 7.90514V6.56127C20.8101 5.44988 19.9127 4.54546 18.8101 4.54546ZM16.9921 17.9076C16.9394 18.306 16.5427 18.6561 16.1434 18.6561H5.47673C5.07739 18.6561 4.68073 18.306 4.62806 17.9069L3.57139 9.92095H18.0487L16.9921 17.9076Z" fill="white"/>
<path id="Vector_2" d="M6.67258 8.13341C6.7518 8.16614 6.83362 8.18182 6.91414 8.18182C7.17193 8.18182 7.41544 8.01955 7.51738 7.75297L10.1148 0.934995C10.2479 0.585233 10.0862 0.188427 9.7531 0.0486587C9.41803 -0.0904279 9.04206 0.0786578 8.90894 0.42842L6.31154 7.24639C6.17777 7.59684 6.34011 7.99296 6.67258 8.13341ZM14.1031 7.75365C14.205 8.01955 14.4492 8.18182 14.7063 8.18182C14.7869 8.18182 14.868 8.16614 14.9473 8.13273C15.2804 7.99228 15.4421 7.59615 15.3089 7.24639L12.7115 0.42842C12.5784 0.0793396 12.2012 -0.0890643 11.8674 0.0486587C11.5343 0.189109 11.3726 0.585233 11.5057 0.934995L14.1031 7.75365Z" fill="white"/>
</g>
</svg>
