<svg width="135" height="36" viewBox="0 0 135 36" fill="none" xmlns="http://www.w3.org/2000/svg">
<g id="social">
<circle id="Ellipse 12" cx="18" cy="18" r="18" fill="#8936FF"/>
<circle id="Ellipse 13" cx="69" cy="18" r="18" fill="#8936FF"/>
<circle id="Ellipse 14" cx="117" cy="18" r="18" fill="#8936FF"/>
<path id="insta" d="M23.34 11.46C23.1027 11.46 22.8707 11.5304 22.6733 11.6622C22.476 11.7941 22.3222 11.9815 22.2313 12.2008C22.1405 12.4201 22.1168 12.6613 22.1631 12.8941C22.2094 13.1269 22.3236 13.3407 22.4915 13.5085C22.6593 13.6764 22.8731 13.7906 23.1059 13.8369C23.3387 13.8832 23.5799 13.8595 23.7992 13.7687C24.0185 13.6778 24.2059 13.524 24.3378 13.3267C24.4696 13.1293 24.54 12.8973 24.54 12.66C24.54 12.3417 24.4136 12.0365 24.1885 11.8115C23.9635 11.5864 23.6583 11.46 23.34 11.46ZM27.94 13.88C27.9206 13.0503 27.7652 12.2294 27.48 11.45C27.2257 10.7831 26.83 10.1793 26.32 9.68C25.8248 9.16743 25.2196 8.77418 24.55 8.53C23.7727 8.23616 22.9508 8.07721 22.12 8.06C21.06 8 20.72 8 18 8C15.28 8 14.94 8 13.88 8.06C13.0492 8.07721 12.2273 8.23616 11.45 8.53C10.7817 8.77665 10.1769 9.16956 9.68 9.68C9.16743 10.1752 8.77418 10.7804 8.53 11.45C8.23616 12.2273 8.07721 13.0492 8.06 13.88C8 14.94 8 15.28 8 18C8 20.72 8 21.06 8.06 22.12C8.07721 22.9508 8.23616 23.7727 8.53 24.55C8.77418 25.2196 9.16743 25.8248 9.68 26.32C10.1769 26.8304 10.7817 27.2234 11.45 27.47C12.2273 27.7638 13.0492 27.9228 13.88 27.94C14.94 28 15.28 28 18 28C20.72 28 21.06 28 22.12 27.94C22.9508 27.9228 23.7727 27.7638 24.55 27.47C25.2196 27.2258 25.8248 26.8326 26.32 26.32C26.8322 25.8226 27.2283 25.2182 27.48 24.55C27.7652 23.7706 27.9206 22.9497 27.94 22.12C27.94 21.06 28 20.72 28 18C28 15.28 28 14.94 27.94 13.88ZM26.14 22C26.1327 22.6348 26.0178 23.2637 25.8 23.86C25.6403 24.2952 25.3839 24.6884 25.05 25.01C24.7256 25.3405 24.3332 25.5964 23.9 25.76C23.3037 25.9778 22.6748 26.0927 22.04 26.1C21.04 26.15 20.67 26.16 18.04 26.16C15.41 26.16 15.04 26.16 14.04 26.1C13.3809 26.1123 12.7246 26.0109 12.1 25.8C11.6858 25.6281 11.3114 25.3728 11 25.05C10.6681 24.7287 10.4148 24.3352 10.26 23.9C10.0159 23.2952 9.88044 22.6519 9.86 22C9.86 21 9.8 20.63 9.8 18C9.8 15.37 9.8 15 9.86 14C9.86448 13.3511 9.98295 12.7079 10.21 12.1C10.386 11.6779 10.6563 11.3017 11 11C11.3038 10.6562 11.6793 10.3831 12.1 10.2C12.7096 9.98004 13.352 9.86508 14 9.86C15 9.86 15.37 9.8 18 9.8C20.63 9.8 21 9.8 22 9.86C22.6348 9.86728 23.2637 9.98225 23.86 10.2C24.3144 10.3687 24.7223 10.6428 25.05 11C25.3777 11.3072 25.6338 11.6827 25.8 12.1C26.0223 12.7089 26.1373 13.3518 26.14 14C26.19 15 26.2 15.37 26.2 18C26.2 20.63 26.19 21 26.14 22ZM18 12.87C16.9858 12.872 15.995 13.1745 15.1527 13.7394C14.3103 14.3043 13.6544 15.1062 13.2676 16.0438C12.8809 16.9813 12.7807 18.0125 12.9798 19.0069C13.1789 20.0014 13.6682 20.9145 14.3861 21.631C15.1039 22.3474 16.018 22.835 17.0129 23.0321C18.0077 23.2293 19.0387 23.1271 19.9755 22.7385C20.9123 22.35 21.7129 21.6924 22.2761 20.849C22.8394 20.0056 23.14 19.0142 23.14 18C23.1413 17.3251 23.0092 16.6566 22.7512 16.033C22.4933 15.4093 22.1146 14.8428 21.6369 14.3661C21.1592 13.8893 20.5919 13.5117 19.9678 13.2549C19.3436 12.9982 18.6749 12.8674 18 12.87ZM18 21.33C17.3414 21.33 16.6976 21.1347 16.15 20.7688C15.6023 20.4029 15.1755 19.8828 14.9235 19.2743C14.6714 18.6659 14.6055 17.9963 14.734 17.3503C14.8625 16.7044 15.1796 16.111 15.6453 15.6453C16.111 15.1796 16.7044 14.8625 17.3503 14.734C17.9963 14.6055 18.6659 14.6714 19.2743 14.9235C19.8828 15.1755 20.4029 15.6023 20.7688 16.15C21.1347 16.6976 21.33 17.3414 21.33 18C21.33 18.4373 21.2439 18.8703 21.0765 19.2743C20.9092 19.6784 20.6639 20.0454 20.3547 20.3547C20.0454 20.6639 19.6784 20.9092 19.2743 21.0765C18.8703 21.2439 18.4373 21.33 18 21.33Z" fill="white"/>
<path id="facebook" d="M72.51 11.32H74.39V8.14003C73.4798 8.04538 72.5652 7.99865 71.65 8.00003C68.93 8.00003 67.07 9.66003 67.07 12.7V15.32H64V18.88H67.07V28H70.75V18.88H73.81L74.27 15.32H70.75V13.05C70.75 12 71.03 11.32 72.51 11.32Z" fill="#F1F1F1"/>
<path id="twitter" d="M128 11.9506C127.248 12.2767 126.453 12.4923 125.64 12.5906C126.498 12.0779 127.141 11.2714 127.45 10.3206C126.644 10.8007 125.761 11.1389 124.84 11.3206C124.225 10.6532 123.405 10.2089 122.51 10.0575C121.615 9.90601 120.695 10.056 119.894 10.4838C119.093 10.9116 118.457 11.5931 118.085 12.4214C117.714 13.2497 117.627 14.178 117.84 15.0606C116.209 14.9781 114.614 14.5536 113.159 13.8145C111.703 13.0754 110.419 12.0383 109.39 10.7706C109.029 11.4008 108.84 12.1144 108.84 12.8406C108.839 13.515 109.004 14.1792 109.322 14.7742C109.639 15.3691 110.099 15.8763 110.66 16.2506C110.008 16.2329 109.37 16.0579 108.8 15.7406V15.7906C108.805 16.7355 109.136 17.6497 109.737 18.3786C110.339 19.1074 111.173 19.6062 112.1 19.7906C111.743 19.8992 111.373 19.9564 111 19.9606C110.742 19.9576 110.484 19.9342 110.23 19.8906C110.494 20.7034 111.005 21.4137 111.691 21.9228C112.378 22.4318 113.206 22.7142 114.06 22.7306C112.617 23.8659 110.836 24.4855 109 24.4906C108.666 24.4917 108.332 24.4717 108 24.4306C109.874 25.6409 112.059 26.2833 114.29 26.2806C115.83 26.2966 117.357 26.0056 118.783 25.4247C120.209 24.8437 121.505 23.9845 122.595 22.8971C123.685 21.8097 124.548 20.516 125.133 19.0915C125.717 17.667 126.012 16.1403 126 14.6006C126 14.4306 126 14.2506 126 14.0706C126.785 13.4854 127.461 12.768 128 11.9506Z" fill="white"/>
</g>
</svg>
