<svg width="127" height="20" viewBox="0 0 127 20" fill="none" xmlns="http://www.w3.org/2000/svg">
<g id="stars">
<path id="Vector" d="M3.95729 19.3448C4.64748 19.8609 9.07604 16.589 9.92421 16.5818C10.7724 16.5747 15.2508 19.7714 15.9329 19.2436C16.6151 18.7158 15.0114 13.2951 15.267 12.4484C15.5225 11.6017 19.8103 8.13019 19.5417 7.28787C19.2731 6.44556 13.8534 6.36732 13.1632 5.85115C12.473 5.33505 10.6446 -0.00712222 9.79636 7.1293e-06C8.94825 0.00719847 7.20241 5.37956 6.52028 5.90732C5.83814 6.43502 0.420309 6.60488 0.164686 7.4516C-0.0908775 8.29832 4.24981 11.6969 4.51846 12.5392C4.78705 13.3815 3.26711 18.8286 3.95729 19.3448Z" fill="url(#paint0_linear_70_352)"/>
<path id="Vector_2" d="M30.8189 19.3448C31.5091 19.8609 35.9376 16.589 36.7858 16.5818C37.6339 16.5747 42.1124 19.7714 42.7945 19.2436C43.4766 18.7158 41.873 13.2951 42.1285 12.4484C42.3841 11.6017 46.6719 8.13019 46.4033 7.28787C46.1347 6.44556 40.715 6.36732 40.0248 5.85115C39.3346 5.33505 37.5062 -0.00712222 36.6579 7.1293e-06C35.8098 0.00719847 34.064 5.37956 33.3819 5.90732C32.6997 6.43502 27.2819 6.60488 27.0263 7.4516C26.7707 8.29832 31.1114 11.6969 31.38 12.5392C31.6486 13.3815 30.1287 18.8286 30.8189 19.3448Z" fill="url(#paint1_linear_70_352)"/>
<path id="Vector_3" d="M57.6803 19.3448C58.3705 19.8609 62.7991 16.589 63.6472 16.5818C64.4954 16.5747 68.9738 19.7714 69.6559 19.2436C70.3381 18.7158 68.7344 13.2951 68.99 12.4484C69.2455 11.6017 73.5333 8.13019 73.2648 7.28787C72.9961 6.44556 67.5764 6.36732 66.8862 5.85115C66.1961 5.33505 64.3676 -0.00712222 63.5194 7.1293e-06C62.6713 0.00719847 60.9254 5.37956 60.2433 5.90732C59.5612 6.43502 54.1433 6.60488 53.8877 7.4516C53.6321 8.29832 57.9728 11.6969 58.2415 12.5392C58.5101 13.3815 56.9901 18.8286 57.6803 19.3448Z" fill="url(#paint2_linear_70_352)"/>
<path id="Vector_4" d="M84.5419 19.3448C85.2321 19.8609 89.6606 16.589 90.5088 16.5818C91.357 16.5747 95.8354 19.7714 96.5175 19.2436C97.1997 18.7158 95.596 13.2951 95.8515 12.4484C96.1071 11.6017 100.395 8.13019 100.126 7.28787C99.8577 6.44556 94.438 6.36732 93.7478 5.85115C93.0576 5.33505 91.2292 -0.00712222 90.381 7.1293e-06C89.5328 0.00719847 87.787 5.37956 87.1049 5.90732C86.4227 6.43502 81.0049 6.60488 80.7493 7.4516C80.4937 8.29832 84.8344 11.6969 85.1031 12.5392C85.3716 13.3815 83.8517 18.8286 84.5419 19.3448Z" fill="url(#paint3_linear_70_352)"/>
<path id="Vector_5" d="M111.403 19.3448C112.094 19.8609 116.522 16.589 117.37 16.5818C118.219 16.5747 122.697 19.7714 123.379 19.2436C124.061 18.7158 122.458 13.2951 122.713 12.4484C122.969 11.6017 127.256 8.13019 126.988 7.28787C126.719 6.44556 121.3 6.36732 120.609 5.85115C119.919 5.33505 118.091 -0.00712222 117.243 7.1293e-06C116.394 0.00719847 114.649 5.37956 113.966 5.90732C113.284 6.43502 107.866 6.60488 107.611 7.4516C107.355 8.29832 111.696 11.6969 111.965 12.5392C112.233 13.3815 110.713 18.8286 111.403 19.3448Z" fill="url(#paint4_linear_70_352)"/>
</g>
<defs>
<linearGradient id="paint0_linear_70_352" x1="10.7298" y1="-0.393243" x2="3.48368" y2="17.2075" gradientUnits="userSpaceOnUse">
<stop stop-color="#E9A904"/>
<stop offset="1" stop-color="#FFC805"/>
</linearGradient>
<linearGradient id="paint1_linear_70_352" x1="37.5913" y1="-0.393243" x2="30.3453" y2="17.2075" gradientUnits="userSpaceOnUse">
<stop stop-color="#E9A904"/>
<stop offset="1" stop-color="#FFC805"/>
</linearGradient>
<linearGradient id="paint2_linear_70_352" x1="64.4528" y1="-0.393243" x2="57.2067" y2="17.2075" gradientUnits="userSpaceOnUse">
<stop stop-color="#E9A904"/>
<stop offset="1" stop-color="#FFC805"/>
</linearGradient>
<linearGradient id="paint3_linear_70_352" x1="91.3144" y1="-0.393243" x2="84.0683" y2="17.2075" gradientUnits="userSpaceOnUse">
<stop stop-color="#E9A904"/>
<stop offset="1" stop-color="#FFC805"/>
</linearGradient>
<linearGradient id="paint4_linear_70_352" x1="118.176" y1="-0.393243" x2="110.93" y2="17.2075" gradientUnits="userSpaceOnUse">
<stop stop-color="#E9A904"/>
<stop offset="1" stop-color="#FFC805"/>
</linearGradient>
</defs>
</svg>
